<svg width="1280" height="720" xmlns="http://www.w3.org/2000/svg" xmlns:xlink="http://www.w3.org/1999/xlink" overflow="hidden"><defs><linearGradient x1="640" y1="0" x2="640" y2="720" gradientUnits="userSpaceOnUse" spreadMethod="reflect" id="fill0"><stop offset="0" stop-color="#F6F8FC"/><stop offset="0.74" stop-color="#ABC0E4"/><stop offset="0.83" stop-color="#ABC0E4"/><stop offset="1" stop-color="#C7D5ED"/></linearGradient><linearGradient x1="640" y1="0" x2="640" y2="720" gradientUnits="userSpaceOnUse" spreadMethod="reflect" id="fill1"><stop offset="0" stop-color="#F6F8FC"/><stop offset="0.74" stop-color="#ABC0E4"/><stop offset="0.83" stop-color="#ABC0E4"/><stop offset="1" stop-color="#C7D5ED"/></linearGradient><linearGradient x1="38.5288" y1="-30.5495" x2="299.471" y2="298.549" gradientUnits="userSpaceOnUse" spreadMethod="reflect" id="fill2"><stop offset="0" stop-color="#4472C4"/><stop offset="0.00595238" stop-color="#4572C3"/><stop offset="0.0119048" stop-color="#4772C3"/><stop offset="0.0178571" stop-color="#4972C3"/><stop offset="0.0238095" stop-color="#4B72C3"/><stop offset="0.0297619" stop-color="#4D72C3"/><stop offset="0.0357143" stop-color="#4F72C3"/><stop offset="0.0416667" stop-color="#5072C3"/><stop offset="0.047619" stop-color="#5272C3"/><stop offset="0.0535714" stop-color="#5473C3"/><stop offset="0.0595238" stop-color="#5673C3"/><stop offset="0.0654762" stop-color="#5873C3"/><stop offset="0.0714286" stop-color="#5973C2"/><stop offset="0.077381" stop-color="#5B73C2"/><stop offset="0.0833333" stop-color="#5D73C2"/><stop offset="0.0892857" stop-color="#5F73C2"/><stop offset="0.0952381" stop-color="#6073C2"/><stop offset="0.10119" stop-color="#6273C1"/><stop offset="0.107143" stop-color="#6474C1"/><stop offset="0.113095" stop-color="#6674C1"/><stop offset="0.119048" stop-color="#6774C1"/><stop offset="0.125" stop-color="#6974C1"/><stop offset="0.130952" stop-color="#6B74C0"/><stop offset="0.136905" stop-color="#6C74C0"/><stop offset="0.142857" stop-color="#6E74C0"/><stop offset="0.14881" stop-color="#7074BF"/><stop offset="0.154762" stop-color="#7174BF"/><stop offset="0.160714" stop-color="#7375BF"/><stop offset="0.166667" stop-color="#7475BE"/><stop offset="0.172619" stop-color="#7675BE"/><stop offset="0.178571" stop-color="#7875BE"/><stop offset="0.184524" stop-color="#7975BD"/><stop offset="0.190476" stop-color="#7B75BD"/><stop offset="0.196429" stop-color="#7C75BD"/><stop offset="0.202381" stop-color="#7E75BC"/><stop offset="0.208333" stop-color="#7F75BC"/><stop offset="0.214286" stop-color="#8176BB"/><stop offset="0.220238" stop-color="#8276BB"/><stop offset="0.22619" stop-color="#8476BA"/><stop offset="0.232143" stop-color="#8676BA"/><stop offset="0.238095" stop-color="#8776BA"/><stop offset="0.244048" stop-color="#8876B9"/><stop offset="0.25" stop-color="#8A76B9"/><stop offset="0.255952" stop-color="#8B76B8"/><stop offset="0.261905" stop-color="#8D76B8"/><stop offset="0.267857" stop-color="#8E76B7"/><stop offset="0.27381" stop-color="#9076B7"/><stop offset="0.279762" stop-color="#9177B6"/><stop offset="0.285714" stop-color="#9377B5"/><stop offset="0.291667" stop-color="#9477B5"/><stop offset="0.297619" stop-color="#9577B4"/><stop offset="0.303571" stop-color="#9777B4"/><stop offset="0.309524" stop-color="#9877B3"/><stop offset="0.315476" stop-color="#9977B3"/><stop offset="0.321429" stop-color="#9B77B2"/><stop offset="0.327381" stop-color="#9C77B1"/><stop offset="0.333333" stop-color="#9D77B1"/><stop offset="0.339286" stop-color="#9F77B0"/><stop offset="0.345238" stop-color="#A078AF"/><stop offset="0.35119" stop-color="#A178AF"/><stop offset="0.357143" stop-color="#A378AE"/><stop offset="0.363095" stop-color="#A478AE"/><stop offset="0.369048" stop-color="#A578AD"/><stop offset="0.375" stop-color="#A678AC"/><stop offset="0.380952" stop-color="#A878AB"/><stop offset="0.386905" stop-color="#A978AB"/><stop offset="0.392857" stop-color="#AA78AA"/><stop offset="0.39881" stop-color="#AB78A9"/><stop offset="0.404762" stop-color="#AD78A9"/><stop offset="0.410714" stop-color="#AE78A8"/><stop offset="0.416667" stop-color="#AF78A7"/><stop offset="0.422619" stop-color="#B079A6"/><stop offset="0.428571" stop-color="#B179A5"/><stop offset="0.434524" stop-color="#B279A5"/><stop offset="0.440476" stop-color="#B479A4"/><stop offset="0.446429" stop-color="#B579A3"/><stop offset="0.452381" stop-color="#B679A2"/><stop offset="0.458333" stop-color="#B779A1"/><stop offset="0.464286" stop-color="#B879A1"/><stop offset="0.470238" stop-color="#B979A0"/><stop offset="0.47619" stop-color="#BA799F"/><stop offset="0.482143" stop-color="#BB799E"/><stop offset="0.488095" stop-color="#BC799D"/><stop offset="0.494048" stop-color="#BD799C"/><stop offset="0.5" stop-color="#BE7A9B"/><stop offset="0.505952" stop-color="#BF7A9B"/><stop offset="0.511905" stop-color="#C07A9A"/><stop offset="0.517857" stop-color="#C17A99"/><stop offset="0.52381" stop-color="#C27A98"/><stop offset="0.529762" stop-color="#C37A97"/><stop offset="0.535714" stop-color="#C47A96"/><stop offset="0.541667" stop-color="#C57A95"/><stop offset="0.547619" stop-color="#C67A94"/><stop offset="0.553571" stop-color="#C77A93"/><stop offset="0.559524" stop-color="#C87A92"/><stop offset="0.565476" stop-color="#C97A91"/><stop offset="0.571429" stop-color="#CA7A90"/><stop offset="0.577381" stop-color="#CB7A8F"/><stop offset="0.583333" stop-color="#CC7A8E"/><stop offset="0.589286" stop-color="#CD7A8D"/><stop offset="0.595238" stop-color="#CD7A8C"/><stop offset="0.60119" stop-color="#CE7B8B"/><stop offset="0.607143" stop-color="#CF7B8A"/><stop offset="0.613095" stop-color="#D07B89"/><stop offset="0.619048" stop-color="#D17B88"/><stop offset="0.625" stop-color="#D27B87"/><stop offset="0.630952" stop-color="#D27B86"/><stop offset="0.636905" stop-color="#D37B84"/><stop offset="0.642857" stop-color="#D47B83"/><stop offset="0.64881" stop-color="#D57B82"/><stop offset="0.654762" stop-color="#D57B81"/><stop offset="0.660714" stop-color="#D67B80"/><stop offset="0.666667" stop-color="#D77B7F"/><stop offset="0.672619" stop-color="#D87B7E"/><stop offset="0.678571" stop-color="#D87B7C"/><stop offset="0.684524" stop-color="#D97B7B"/><stop offset="0.690476" stop-color="#DA7B7A"/><stop offset="0.696429" stop-color="#DA7B79"/><stop offset="0.702381" stop-color="#DB7B78"/><stop offset="0.708333" stop-color="#DC7B76"/><stop offset="0.714286" stop-color="#DC7B75"/><stop offset="0.720238" stop-color="#DD7B74"/><stop offset="0.72619" stop-color="#DE7C73"/><stop offset="0.732143" stop-color="#DE7C72"/><stop offset="0.738095" stop-color="#DF7C70"/><stop offset="0.744048" stop-color="#DF7C6F"/><stop offset="0.75" stop-color="#E07C6E"/><stop offset="0.755952" stop-color="#E07C6D"/><stop offset="0.761905" stop-color="#E17C6B"/><stop offset="0.767857" stop-color="#E27C6A"/><stop offset="0.77381" stop-color="#E27C69"/><stop offset="0.779762" stop-color="#E37C67"/><stop offset="0.785714" stop-color="#E37C66"/><stop offset="0.791667" stop-color="#E47C65"/><stop offset="0.797619" stop-color="#E47C63"/><stop offset="0.803571" stop-color="#E57C62"/><stop offset="0.809524" stop-color="#E57C61"/><stop offset="0.815476" stop-color="#E57C5F"/><stop offset="0.821429" stop-color="#E67C5E"/><stop offset="0.827381" stop-color="#E67C5C"/><stop offset="0.833333" stop-color="#E77C5B"/><stop offset="0.839286" stop-color="#E77C5A"/><stop offset="0.845238" stop-color="#E77C58"/><stop offset="0.85119" stop-color="#E87C57"/><stop offset="0.857143" stop-color="#E87C55"/><stop offset="0.863095" stop-color="#E87C54"/><stop offset="0.869048" stop-color="#E97C53"/><stop offset="0.875" stop-color="#E97C51"/><stop offset="0.880952" stop-color="#E97C50"/><stop offset="0.886905" stop-color="#EA7C4E"/><stop offset="0.892857" stop-color="#EA7C4D"/><stop offset="0.89881" stop-color="#EA7C4B"/><stop offset="0.904762" stop-color="#EA7C4A"/><stop offset="0.910714" stop-color="#EB7C48"/><stop offset="0.916667" stop-color="#EB7C47"/><stop offset="0.922619" stop-color="#EB7C45"/><stop offset="0.928571" stop-color="#EB7C44"/><stop offset="0.934524" stop-color="#EB7C42"/><stop offset="0.940476" stop-color="#EC7C40"/><stop offset="0.946429" stop-color="#EC7C3F"/><stop offset="0.952381" stop-color="#EC7C3D"/><stop offset="0.958333" stop-color="#EC7C3C"/><stop offset="0.964286" stop-color="#EC7C3A"/><stop offset="0.970238" stop-color="#EC7C39"/><stop offset="0.97619" stop-color="#EC7C37"/><stop offset="0.982143" stop-color="#EC7C35"/><stop offset="0.988095" stop-color="#EC7C34"/><stop offset="0.994048" stop-color="#EC7C32"/><stop offset="1" stop-color="#ED7D31"/></linearGradient><clipPath id="clip3"><path d="M727.56 112.749 851.594 209.883 751.516 337.676 627.482 240.542Z" fill-rule="evenodd" clip-rule="evenodd"/></clipPath><clipPath id="clip4"><path d="M727.56 112.749 851.594 209.883 751.516 337.676 627.482 240.542Z" fill-rule="evenodd" clip-rule="evenodd"/></clipPath><clipPath id="clip5"><path d="M727.56 112.749 851.594 209.883 751.516 337.676 627.482 240.542Z" fill-rule="evenodd" clip-rule="evenodd"/></clipPath><linearGradient x1="351" y1="12" x2="614" y2="275" gradientUnits="userSpaceOnUse" spreadMethod="reflect" id="fill6"><stop offset="0" stop-color="#4472C4"/><stop offset="0.00595238" stop-color="#4572C3"/><stop offset="0.0119048" stop-color="#4772C3"/><stop offset="0.0178571" stop-color="#4972C3"/><stop offset="0.0238095" stop-color="#4B72C3"/><stop offset="0.0297619" stop-color="#4D72C3"/><stop offset="0.0357143" stop-color="#4F72C3"/><stop offset="0.0416667" stop-color="#5072C3"/><stop offset="0.047619" stop-color="#5272C3"/><stop offset="0.0535714" stop-color="#5473C3"/><stop offset="0.0595238" stop-color="#5673C3"/><stop offset="0.0654762" stop-color="#5873C3"/><stop offset="0.0714286" stop-color="#5973C2"/><stop offset="0.077381" stop-color="#5B73C2"/><stop offset="0.0833333" stop-color="#5D73C2"/><stop offset="0.0892857" stop-color="#5F73C2"/><stop offset="0.0952381" stop-color="#6073C2"/><stop offset="0.10119" stop-color="#6273C1"/><stop offset="0.107143" stop-color="#6474C1"/><stop offset="0.113095" stop-color="#6674C1"/><stop offset="0.119048" stop-color="#6774C1"/><stop offset="0.125" stop-color="#6974C1"/><stop offset="0.130952" stop-color="#6B74C0"/><stop offset="0.136905" stop-color="#6C74C0"/><stop offset="0.142857" stop-color="#6E74C0"/><stop offset="0.14881" stop-color="#7074BF"/><stop offset="0.154762" stop-color="#7174BF"/><stop offset="0.160714" stop-color="#7375BF"/><stop offset="0.166667" stop-color="#7475BE"/><stop offset="0.172619" stop-color="#7675BE"/><stop offset="0.178571" stop-color="#7875BE"/><stop offset="0.184524" stop-color="#7975BD"/><stop offset="0.190476" stop-color="#7B75BD"/><stop offset="0.196429" stop-color="#7C75BD"/><stop offset="0.202381" stop-color="#7E75BC"/><stop offset="0.208333" stop-color="#7F75BC"/><stop offset="0.214286" stop-color="#8176BB"/><stop offset="0.220238" stop-color="#8276BB"/><stop offset="0.22619" stop-color="#8476BA"/><stop offset="0.232143" stop-color="#8676BA"/><stop offset="0.238095" stop-color="#8776BA"/><stop offset="0.244048" stop-color="#8876B9"/><stop offset="0.25" stop-color="#8A76B9"/><stop offset="0.255952" stop-color="#8B76B8"/><stop offset="0.261905" stop-color="#8D76B8"/><stop offset="0.267857" stop-color="#8E76B7"/><stop offset="0.27381" stop-color="#9076B7"/><stop offset="0.279762" stop-color="#9177B6"/><stop offset="0.285714" stop-color="#9377B5"/><stop offset="0.291667" stop-color="#9477B5"/><stop offset="0.297619" stop-color="#9577B4"/><stop offset="0.303571" stop-color="#9777B4"/><stop offset="0.309524" stop-color="#9877B3"/><stop offset="0.315476" stop-color="#9977B3"/><stop offset="0.321429" stop-color="#9B77B2"/><stop offset="0.327381" stop-color="#9C77B1"/><stop offset="0.333333" stop-color="#9D77B1"/><stop offset="0.339286" stop-color="#9F77B0"/><stop offset="0.345238" stop-color="#A078AF"/><stop offset="0.35119" stop-color="#A178AF"/><stop offset="0.357143" stop-color="#A378AE"/><stop offset="0.363095" stop-color="#A478AE"/><stop offset="0.369048" stop-color="#A578AD"/><stop offset="0.375" stop-color="#A678AC"/><stop offset="0.380952" stop-color="#A878AB"/><stop offset="0.386905" stop-color="#A978AB"/><stop offset="0.392857" stop-color="#AA78AA"/><stop offset="0.39881" stop-color="#AB78A9"/><stop offset="0.404762" stop-color="#AD78A9"/><stop offset="0.410714" stop-color="#AE78A8"/><stop offset="0.416667" stop-color="#AF78A7"/><stop offset="0.422619" stop-color="#B079A6"/><stop offset="0.428571" stop-color="#B179A5"/><stop offset="0.434524" stop-color="#B279A5"/><stop offset="0.440476" stop-color="#B479A4"/><stop offset="0.446429" stop-color="#B579A3"/><stop offset="0.452381" stop-color="#B679A2"/><stop offset="0.458333" stop-color="#B779A1"/><stop offset="0.464286" stop-color="#B879A1"/><stop offset="0.470238" stop-color="#B979A0"/><stop offset="0.47619" stop-color="#BA799F"/><stop offset="0.482143" stop-color="#BB799E"/><stop offset="0.488095" stop-color="#BC799D"/><stop offset="0.494048" stop-color="#BD799C"/><stop offset="0.5" stop-color="#BE7A9B"/><stop offset="0.505952" stop-color="#BF7A9B"/><stop offset="0.511905" stop-color="#C07A9A"/><stop offset="0.517857" stop-color="#C17A99"/><stop offset="0.52381" stop-color="#C27A98"/><stop offset="0.529762" stop-color="#C37A97"/><stop offset="0.535714" stop-color="#C47A96"/><stop offset="0.541667" stop-color="#C57A95"/><stop offset="0.547619" stop-color="#C67A94"/><stop offset="0.553571" stop-color="#C77A93"/><stop offset="0.559524" stop-color="#C87A92"/><stop offset="0.565476" stop-color="#C97A91"/><stop offset="0.571429" stop-color="#CA7A90"/><stop offset="0.577381" stop-color="#CB7A8F"/><stop offset="0.583333" stop-color="#CC7A8E"/><stop offset="0.589286" stop-color="#CD7A8D"/><stop offset="0.595238" stop-color="#CD7A8C"/><stop offset="0.60119" stop-color="#CE7B8B"/><stop offset="0.607143" stop-color="#CF7B8A"/><stop offset="0.613095" stop-color="#D07B89"/><stop offset="0.619048" stop-color="#D17B88"/><stop offset="0.625" stop-color="#D27B87"/><stop offset="0.630952" stop-color="#D27B86"/><stop offset="0.636905" stop-color="#D37B84"/><stop offset="0.642857" stop-color="#D47B83"/><stop offset="0.64881" stop-color="#D57B82"/><stop offset="0.654762" stop-color="#D57B81"/><stop offset="0.660714" stop-color="#D67B80"/><stop offset="0.666667" stop-color="#D77B7F"/><stop offset="0.672619" stop-color="#D87B7E"/><stop offset="0.678571" stop-color="#D87B7C"/><stop offset="0.684524" stop-color="#D97B7B"/><stop offset="0.690476" stop-color="#DA7B7A"/><stop offset="0.696429" stop-color="#DA7B79"/><stop offset="0.702381" stop-color="#DB7B78"/><stop offset="0.708333" stop-color="#DC7B76"/><stop offset="0.714286" stop-color="#DC7B75"/><stop offset="0.720238" stop-color="#DD7B74"/><stop offset="0.72619" stop-color="#DE7C73"/><stop offset="0.732143" stop-color="#DE7C72"/><stop offset="0.738095" stop-color="#DF7C70"/><stop offset="0.744048" stop-color="#DF7C6F"/><stop offset="0.75" stop-color="#E07C6E"/><stop offset="0.755952" stop-color="#E07C6D"/><stop offset="0.761905" stop-color="#E17C6B"/><stop offset="0.767857" stop-color="#E27C6A"/><stop offset="0.77381" stop-color="#E27C69"/><stop offset="0.779762" stop-color="#E37C67"/><stop offset="0.785714" stop-color="#E37C66"/><stop offset="0.791667" stop-color="#E47C65"/><stop offset="0.797619" stop-color="#E47C63"/><stop offset="0.803571" stop-color="#E57C62"/><stop offset="0.809524" stop-color="#E57C61"/><stop offset="0.815476" stop-color="#E57C5F"/><stop offset="0.821429" stop-color="#E67C5E"/><stop offset="0.827381" stop-color="#E67C5C"/><stop offset="0.833333" stop-color="#E77C5B"/><stop offset="0.839286" stop-color="#E77C5A"/><stop offset="0.845238" stop-color="#E77C58"/><stop offset="0.85119" stop-color="#E87C57"/><stop offset="0.857143" stop-color="#E87C55"/><stop offset="0.863095" stop-color="#E87C54"/><stop offset="0.869048" stop-color="#E97C53"/><stop offset="0.875" stop-color="#E97C51"/><stop offset="0.880952" stop-color="#E97C50"/><stop offset="0.886905" stop-color="#EA7C4E"/><stop offset="0.892857" stop-color="#EA7C4D"/><stop offset="0.89881" stop-color="#EA7C4B"/><stop offset="0.904762" stop-color="#EA7C4A"/><stop offset="0.910714" stop-color="#EB7C48"/><stop offset="0.916667" stop-color="#EB7C47"/><stop offset="0.922619" stop-color="#EB7C45"/><stop offset="0.928571" stop-color="#EB7C44"/><stop offset="0.934524" stop-color="#EB7C42"/><stop offset="0.940476" stop-color="#EC7C40"/><stop offset="0.946429" stop-color="#EC7C3F"/><stop offset="0.952381" stop-color="#EC7C3D"/><stop offset="0.958333" stop-color="#EC7C3C"/><stop offset="0.964286" stop-color="#EC7C3A"/><stop offset="0.970238" stop-color="#EC7C39"/><stop offset="0.97619" stop-color="#EC7C37"/><stop offset="0.982143" stop-color="#EC7C35"/><stop offset="0.988095" stop-color="#EC7C34"/><stop offset="0.994048" stop-color="#EC7C32"/><stop offset="1" stop-color="#ED7D31"/></linearGradient><linearGradient x1="441" y1="289" x2="687" y2="535" gradientUnits="userSpaceOnUse" spreadMethod="reflect" id="fill7"><stop offset="0" stop-color="#4472C4"/><stop offset="0.00595238" stop-color="#4572C3"/><stop offset="0.0119048" stop-color="#4772C3"/><stop offset="0.0178571" stop-color="#4972C3"/><stop offset="0.0238095" stop-color="#4B72C3"/><stop offset="0.0297619" stop-color="#4D72C3"/><stop offset="0.0357143" stop-color="#4F72C3"/><stop offset="0.0416667" stop-color="#5072C3"/><stop offset="0.047619" stop-color="#5272C3"/><stop offset="0.0535714" stop-color="#5473C3"/><stop offset="0.0595238" stop-color="#5673C3"/><stop offset="0.0654762" stop-color="#5873C3"/><stop offset="0.0714286" stop-color="#5973C2"/><stop offset="0.077381" stop-color="#5B73C2"/><stop offset="0.0833333" stop-color="#5D73C2"/><stop offset="0.0892857" stop-color="#5F73C2"/><stop offset="0.0952381" stop-color="#6073C2"/><stop offset="0.10119" stop-color="#6273C1"/><stop offset="0.107143" stop-color="#6474C1"/><stop offset="0.113095" stop-color="#6674C1"/><stop offset="0.119048" stop-color="#6774C1"/><stop offset="0.125" stop-color="#6974C1"/><stop offset="0.130952" stop-color="#6B74C0"/><stop offset="0.136905" stop-color="#6C74C0"/><stop offset="0.142857" stop-color="#6E74C0"/><stop offset="0.14881" stop-color="#7074BF"/><stop offset="0.154762" stop-color="#7174BF"/><stop offset="0.160714" stop-color="#7375BF"/><stop offset="0.166667" stop-color="#7475BE"/><stop offset="0.172619" stop-color="#7675BE"/><stop offset="0.178571" stop-color="#7875BE"/><stop offset="0.184524" stop-color="#7975BD"/><stop offset="0.190476" stop-color="#7B75BD"/><stop offset="0.196429" stop-color="#7C75BD"/><stop offset="0.202381" stop-color="#7E75BC"/><stop offset="0.208333" stop-color="#7F75BC"/><stop offset="0.214286" stop-color="#8176BB"/><stop offset="0.220238" stop-color="#8276BB"/><stop offset="0.22619" stop-color="#8476BA"/><stop offset="0.232143" stop-color="#8676BA"/><stop offset="0.238095" stop-color="#8776BA"/><stop offset="0.244048" stop-color="#8876B9"/><stop offset="0.25" stop-color="#8A76B9"/><stop offset="0.255952" stop-color="#8B76B8"/><stop offset="0.261905" stop-color="#8D76B8"/><stop offset="0.267857" stop-color="#8E76B7"/><stop offset="0.27381" stop-color="#9076B7"/><stop offset="0.279762" stop-color="#9177B6"/><stop offset="0.285714" stop-color="#9377B5"/><stop offset="0.291667" stop-color="#9477B5"/><stop offset="0.297619" stop-color="#9577B4"/><stop offset="0.303571" stop-color="#9777B4"/><stop offset="0.309524" stop-color="#9877B3"/><stop offset="0.315476" stop-color="#9977B3"/><stop offset="0.321429" stop-color="#9B77B2"/><stop offset="0.327381" stop-color="#9C77B1"/><stop offset="0.333333" stop-color="#9D77B1"/><stop offset="0.339286" stop-color="#9F77B0"/><stop offset="0.345238" stop-color="#A078AF"/><stop offset="0.35119" stop-color="#A178AF"/><stop offset="0.357143" stop-color="#A378AE"/><stop offset="0.363095" stop-color="#A478AE"/><stop offset="0.369048" stop-color="#A578AD"/><stop offset="0.375" stop-color="#A678AC"/><stop offset="0.380952" stop-color="#A878AB"/><stop offset="0.386905" stop-color="#A978AB"/><stop offset="0.392857" stop-color="#AA78AA"/><stop offset="0.39881" stop-color="#AB78A9"/><stop offset="0.404762" stop-color="#AD78A9"/><stop offset="0.410714" stop-color="#AE78A8"/><stop offset="0.416667" stop-color="#AF78A7"/><stop offset="0.422619" stop-color="#B079A6"/><stop offset="0.428571" stop-color="#B179A5"/><stop offset="0.434524" stop-color="#B279A5"/><stop offset="0.440476" stop-color="#B479A4"/><stop offset="0.446429" stop-color="#B579A3"/><stop offset="0.452381" stop-color="#B679A2"/><stop offset="0.458333" stop-color="#B779A1"/><stop offset="0.464286" stop-color="#B879A1"/><stop offset="0.470238" stop-color="#B979A0"/><stop offset="0.47619" stop-color="#BA799F"/><stop offset="0.482143" stop-color="#BB799E"/><stop offset="0.488095" stop-color="#BC799D"/><stop offset="0.494048" stop-color="#BD799C"/><stop offset="0.5" stop-color="#BE7A9B"/><stop offset="0.505952" stop-color="#BF7A9B"/><stop offset="0.511905" stop-color="#C07A9A"/><stop offset="0.517857" stop-color="#C17A99"/><stop offset="0.52381" stop-color="#C27A98"/><stop offset="0.529762" stop-color="#C37A97"/><stop offset="0.535714" stop-color="#C47A96"/><stop offset="0.541667" stop-color="#C57A95"/><stop offset="0.547619" stop-color="#C67A94"/><stop offset="0.553571" stop-color="#C77A93"/><stop offset="0.559524" stop-color="#C87A92"/><stop offset="0.565476" stop-color="#C97A91"/><stop offset="0.571429" stop-color="#CA7A90"/><stop offset="0.577381" stop-color="#CB7A8F"/><stop offset="0.583333" stop-color="#CC7A8E"/><stop offset="0.589286" stop-color="#CD7A8D"/><stop offset="0.595238" stop-color="#CD7A8C"/><stop offset="0.60119" stop-color="#CE7B8B"/><stop offset="0.607143" stop-color="#CF7B8A"/><stop offset="0.613095" stop-color="#D07B89"/><stop offset="0.619048" stop-color="#D17B88"/><stop offset="0.625" stop-color="#D27B87"/><stop offset="0.630952" stop-color="#D27B86"/><stop offset="0.636905" stop-color="#D37B84"/><stop offset="0.642857" stop-color="#D47B83"/><stop offset="0.64881" stop-color="#D57B82"/><stop offset="0.654762" stop-color="#D57B81"/><stop offset="0.660714" stop-color="#D67B80"/><stop offset="0.666667" stop-color="#D77B7F"/><stop offset="0.672619" stop-color="#D87B7E"/><stop offset="0.678571" stop-color="#D87B7C"/><stop offset="0.684524" stop-color="#D97B7B"/><stop offset="0.690476" stop-color="#DA7B7A"/><stop offset="0.696429" stop-color="#DA7B79"/><stop offset="0.702381" stop-color="#DB7B78"/><stop offset="0.708333" stop-color="#DC7B76"/><stop offset="0.714286" stop-color="#DC7B75"/><stop offset="0.720238" stop-color="#DD7B74"/><stop offset="0.72619" stop-color="#DE7C73"/><stop offset="0.732143" stop-color="#DE7C72"/><stop offset="0.738095" stop-color="#DF7C70"/><stop offset="0.744048" stop-color="#DF7C6F"/><stop offset="0.75" stop-color="#E07C6E"/><stop offset="0.755952" stop-color="#E07C6D"/><stop offset="0.761905" stop-color="#E17C6B"/><stop offset="0.767857" stop-color="#E27C6A"/><stop offset="0.77381" stop-color="#E27C69"/><stop offset="0.779762" stop-color="#E37C67"/><stop offset="0.785714" stop-color="#E37C66"/><stop offset="0.791667" stop-color="#E47C65"/><stop offset="0.797619" stop-color="#E47C63"/><stop offset="0.803571" stop-color="#E57C62"/><stop offset="0.809524" stop-color="#E57C61"/><stop offset="0.815476" stop-color="#E57C5F"/><stop offset="0.821429" stop-color="#E67C5E"/><stop offset="0.827381" stop-color="#E67C5C"/><stop offset="0.833333" stop-color="#E77C5B"/><stop offset="0.839286" stop-color="#E77C5A"/><stop offset="0.845238" stop-color="#E77C58"/><stop offset="0.85119" stop-color="#E87C57"/><stop offset="0.857143" stop-color="#E87C55"/><stop offset="0.863095" stop-color="#E87C54"/><stop offset="0.869048" stop-color="#E97C53"/><stop offset="0.875" stop-color="#E97C51"/><stop offset="0.880952" stop-color="#E97C50"/><stop offset="0.886905" stop-color="#EA7C4E"/><stop offset="0.892857" stop-color="#EA7C4D"/><stop offset="0.89881" stop-color="#EA7C4B"/><stop offset="0.904762" stop-color="#EA7C4A"/><stop offset="0.910714" stop-color="#EB7C48"/><stop offset="0.916667" stop-color="#EB7C47"/><stop offset="0.922619" stop-color="#EB7C45"/><stop offset="0.928571" stop-color="#EB7C44"/><stop offset="0.934524" stop-color="#EB7C42"/><stop offset="0.940476" stop-color="#EC7C40"/><stop offset="0.946429" stop-color="#EC7C3F"/><stop offset="0.952381" stop-color="#EC7C3D"/><stop offset="0.958333" stop-color="#EC7C3C"/><stop offset="0.964286" stop-color="#EC7C3A"/><stop offset="0.970238" stop-color="#EC7C39"/><stop offset="0.97619" stop-color="#EC7C37"/><stop offset="0.982143" stop-color="#EC7C35"/><stop offset="0.988095" stop-color="#EC7C34"/><stop offset="0.994048" stop-color="#EC7C32"/><stop offset="1" stop-color="#ED7D31"/></linearGradient><linearGradient x1="21.9283" y1="269.019" x2="451.072" y2="739.981" gradientUnits="userSpaceOnUse" spreadMethod="reflect" id="fill8"><stop offset="0" stop-color="#4472C4"/><stop offset="0.00595238" stop-color="#4572C3"/><stop offset="0.0119048" stop-color="#4772C3"/><stop offset="0.0178571" stop-color="#4972C3"/><stop offset="0.0238095" stop-color="#4B72C3"/><stop offset="0.0297619" stop-color="#4D72C3"/><stop offset="0.0357143" stop-color="#4F72C3"/><stop offset="0.0416667" stop-color="#5072C3"/><stop offset="0.047619" stop-color="#5272C3"/><stop offset="0.0535714" stop-color="#5473C3"/><stop offset="0.0595238" stop-color="#5673C3"/><stop offset="0.0654762" stop-color="#5873C3"/><stop offset="0.0714286" stop-color="#5973C2"/><stop offset="0.077381" stop-color="#5B73C2"/><stop offset="0.0833333" stop-color="#5D73C2"/><stop offset="0.0892857" stop-color="#5F73C2"/><stop offset="0.0952381" stop-color="#6073C2"/><stop offset="0.10119" stop-color="#6273C1"/><stop offset="0.107143" stop-color="#6474C1"/><stop offset="0.113095" stop-color="#6674C1"/><stop offset="0.119048" stop-color="#6774C1"/><stop offset="0.125" stop-color="#6974C1"/><stop offset="0.130952" stop-color="#6B74C0"/><stop offset="0.136905" stop-color="#6C74C0"/><stop offset="0.142857" stop-color="#6E74C0"/><stop offset="0.14881" stop-color="#7074BF"/><stop offset="0.154762" stop-color="#7174BF"/><stop offset="0.160714" stop-color="#7375BF"/><stop offset="0.166667" stop-color="#7475BE"/><stop offset="0.172619" stop-color="#7675BE"/><stop offset="0.178571" stop-color="#7875BE"/><stop offset="0.184524" stop-color="#7975BD"/><stop offset="0.190476" stop-color="#7B75BD"/><stop offset="0.196429" stop-color="#7C75BD"/><stop offset="0.202381" stop-color="#7E75BC"/><stop offset="0.208333" stop-color="#7F75BC"/><stop offset="0.214286" stop-color="#8176BB"/><stop offset="0.220238" stop-color="#8276BB"/><stop offset="0.22619" stop-color="#8476BA"/><stop offset="0.232143" stop-color="#8676BA"/><stop offset="0.238095" stop-color="#8776BA"/><stop offset="0.244048" stop-color="#8876B9"/><stop offset="0.25" stop-color="#8A76B9"/><stop offset="0.255952" stop-color="#8B76B8"/><stop offset="0.261905" stop-color="#8D76B8"/><stop offset="0.267857" stop-color="#8E76B7"/><stop offset="0.27381" stop-color="#9076B7"/><stop offset="0.279762" stop-color="#9177B6"/><stop offset="0.285714" stop-color="#9377B5"/><stop offset="0.291667" stop-color="#9477B5"/><stop offset="0.297619" stop-color="#9577B4"/><stop offset="0.303571" stop-color="#9777B4"/><stop offset="0.309524" stop-color="#9877B3"/><stop offset="0.315476" stop-color="#9977B3"/><stop offset="0.321429" stop-color="#9B77B2"/><stop offset="0.327381" stop-color="#9C77B1"/><stop offset="0.333333" stop-color="#9D77B1"/><stop offset="0.339286" stop-color="#9F77B0"/><stop offset="0.345238" stop-color="#A078AF"/><stop offset="0.35119" stop-color="#A178AF"/><stop offset="0.357143" stop-color="#A378AE"/><stop offset="0.363095" stop-color="#A478AE"/><stop offset="0.369048" stop-color="#A578AD"/><stop offset="0.375" stop-color="#A678AC"/><stop offset="0.380952" stop-color="#A878AB"/><stop offset="0.386905" stop-color="#A978AB"/><stop offset="0.392857" stop-color="#AA78AA"/><stop offset="0.39881" stop-color="#AB78A9"/><stop offset="0.404762" stop-color="#AD78A9"/><stop offset="0.410714" stop-color="#AE78A8"/><stop offset="0.416667" stop-color="#AF78A7"/><stop offset="0.422619" stop-color="#B079A6"/><stop offset="0.428571" stop-color="#B179A5"/><stop offset="0.434524" stop-color="#B279A5"/><stop offset="0.440476" stop-color="#B479A4"/><stop offset="0.446429" stop-color="#B579A3"/><stop offset="0.452381" stop-color="#B679A2"/><stop offset="0.458333" stop-color="#B779A1"/><stop offset="0.464286" stop-color="#B879A1"/><stop offset="0.470238" stop-color="#B979A0"/><stop offset="0.47619" stop-color="#BA799F"/><stop offset="0.482143" stop-color="#BB799E"/><stop offset="0.488095" stop-color="#BC799D"/><stop offset="0.494048" stop-color="#BD799C"/><stop offset="0.5" stop-color="#BE7A9B"/><stop offset="0.505952" stop-color="#BF7A9B"/><stop offset="0.511905" stop-color="#C07A9A"/><stop offset="0.517857" stop-color="#C17A99"/><stop offset="0.52381" stop-color="#C27A98"/><stop offset="0.529762" stop-color="#C37A97"/><stop offset="0.535714" stop-color="#C47A96"/><stop offset="0.541667" stop-color="#C57A95"/><stop offset="0.547619" stop-color="#C67A94"/><stop offset="0.553571" stop-color="#C77A93"/><stop offset="0.559524" stop-color="#C87A92"/><stop offset="0.565476" stop-color="#C97A91"/><stop offset="0.571429" stop-color="#CA7A90"/><stop offset="0.577381" stop-color="#CB7A8F"/><stop offset="0.583333" stop-color="#CC7A8E"/><stop offset="0.589286" stop-color="#CD7A8D"/><stop offset="0.595238" stop-color="#CD7A8C"/><stop offset="0.60119" stop-color="#CE7B8B"/><stop offset="0.607143" stop-color="#CF7B8A"/><stop offset="0.613095" stop-color="#D07B89"/><stop offset="0.619048" stop-color="#D17B88"/><stop offset="0.625" stop-color="#D27B87"/><stop offset="0.630952" stop-color="#D27B86"/><stop offset="0.636905" stop-color="#D37B84"/><stop offset="0.642857" stop-color="#D47B83"/><stop offset="0.64881" stop-color="#D57B82"/><stop offset="0.654762" stop-color="#D57B81"/><stop offset="0.660714" stop-color="#D67B80"/><stop offset="0.666667" stop-color="#D77B7F"/><stop offset="0.672619" stop-color="#D87B7E"/><stop offset="0.678571" stop-color="#D87B7C"/><stop offset="0.684524" stop-color="#D97B7B"/><stop offset="0.690476" stop-color="#DA7B7A"/><stop offset="0.696429" stop-color="#DA7B79"/><stop offset="0.702381" stop-color="#DB7B78"/><stop offset="0.708333" stop-color="#DC7B76"/><stop offset="0.714286" stop-color="#DC7B75"/><stop offset="0.720238" stop-color="#DD7B74"/><stop offset="0.72619" stop-color="#DE7C73"/><stop offset="0.732143" stop-color="#DE7C72"/><stop offset="0.738095" stop-color="#DF7C70"/><stop offset="0.744048" stop-color="#DF7C6F"/><stop offset="0.75" stop-color="#E07C6E"/><stop offset="0.755952" stop-color="#E07C6D"/><stop offset="0.761905" stop-color="#E17C6B"/><stop offset="0.767857" stop-color="#E27C6A"/><stop offset="0.77381" stop-color="#E27C69"/><stop offset="0.779762" stop-color="#E37C67"/><stop offset="0.785714" stop-color="#E37C66"/><stop offset="0.791667" stop-color="#E47C65"/><stop offset="0.797619" stop-color="#E47C63"/><stop offset="0.803571" stop-color="#E57C62"/><stop offset="0.809524" stop-color="#E57C61"/><stop offset="0.815476" stop-color="#E57C5F"/><stop offset="0.821429" stop-color="#E67C5E"/><stop offset="0.827381" stop-color="#E67C5C"/><stop offset="0.833333" stop-color="#E77C5B"/><stop offset="0.839286" stop-color="#E77C5A"/><stop offset="0.845238" stop-color="#E77C58"/><stop offset="0.85119" stop-color="#E87C57"/><stop offset="0.857143" stop-color="#E87C55"/><stop offset="0.863095" stop-color="#E87C54"/><stop offset="0.869048" stop-color="#E97C53"/><stop offset="0.875" stop-color="#E97C51"/><stop offset="0.880952" stop-color="#E97C50"/><stop offset="0.886905" stop-color="#EA7C4E"/><stop offset="0.892857" stop-color="#EA7C4D"/><stop offset="0.89881" stop-color="#EA7C4B"/><stop offset="0.904762" stop-color="#EA7C4A"/><stop offset="0.910714" stop-color="#EB7C48"/><stop offset="0.916667" stop-color="#EB7C47"/><stop offset="0.922619" stop-color="#EB7C45"/><stop offset="0.928571" stop-color="#EB7C44"/><stop offset="0.934524" stop-color="#EB7C42"/><stop offset="0.940476" stop-color="#EC7C40"/><stop offset="0.946429" stop-color="#EC7C3F"/><stop offset="0.952381" stop-color="#EC7C3D"/><stop offset="0.958333" stop-color="#EC7C3C"/><stop offset="0.964286" stop-color="#EC7C3A"/><stop offset="0.970238" stop-color="#EC7C39"/><stop offset="0.97619" stop-color="#EC7C37"/><stop offset="0.982143" stop-color="#EC7C35"/><stop offset="0.988095" stop-color="#EC7C34"/><stop offset="0.994048" stop-color="#EC7C32"/><stop offset="1" stop-color="#ED7D31"/></linearGradient><linearGradient x1="1216.5" y1="721.41" x2="1216.5" y2="377.614" gradientUnits="userSpaceOnUse" spreadMethod="reflect" id="stroke9"><stop offset="0" stop-color="#4472C4"/><stop offset="0.00595238" stop-color="#4572C3"/><stop offset="0.0119048" stop-color="#4772C3"/><stop offset="0.0178571" stop-color="#4972C3"/><stop offset="0.0238095" stop-color="#4B72C3"/><stop offset="0.0297619" stop-color="#4D72C3"/><stop offset="0.0357143" stop-color="#4F72C3"/><stop offset="0.0416667" stop-color="#5072C3"/><stop offset="0.047619" stop-color="#5272C3"/><stop offset="0.0535714" stop-color="#5473C3"/><stop offset="0.0595238" stop-color="#5673C3"/><stop offset="0.0654762" stop-color="#5873C3"/><stop offset="0.0714286" stop-color="#5973C2"/><stop offset="0.077381" stop-color="#5B73C2"/><stop offset="0.0833333" stop-color="#5D73C2"/><stop offset="0.0892857" stop-color="#5F73C2"/><stop offset="0.0952381" stop-color="#6073C2"/><stop offset="0.10119" stop-color="#6273C1"/><stop offset="0.107143" stop-color="#6474C1"/><stop offset="0.113095" stop-color="#6674C1"/><stop offset="0.119048" stop-color="#6774C1"/><stop offset="0.125" stop-color="#6974C1"/><stop offset="0.130952" stop-color="#6B74C0"/><stop offset="0.136905" stop-color="#6C74C0"/><stop offset="0.142857" stop-color="#6E74C0"/><stop offset="0.14881" stop-color="#7074BF"/><stop offset="0.154762" stop-color="#7174BF"/><stop offset="0.160714" stop-color="#7375BF"/><stop offset="0.166667" stop-color="#7475BE"/><stop offset="0.172619" stop-color="#7675BE"/><stop offset="0.178571" stop-color="#7875BE"/><stop offset="0.184524" stop-color="#7975BD"/><stop offset="0.190476" stop-color="#7B75BD"/><stop offset="0.196429" stop-color="#7C75BD"/><stop offset="0.202381" stop-color="#7E75BC"/><stop offset="0.208333" stop-color="#7F75BC"/><stop offset="0.214286" stop-color="#8176BB"/><stop offset="0.220238" stop-color="#8276BB"/><stop offset="0.22619" stop-color="#8476BA"/><stop offset="0.232143" stop-color="#8676BA"/><stop offset="0.238095" stop-color="#8776BA"/><stop offset="0.244048" stop-color="#8876B9"/><stop offset="0.25" stop-color="#8A76B9"/><stop offset="0.255952" stop-color="#8B76B8"/><stop offset="0.261905" stop-color="#8D76B8"/><stop offset="0.267857" stop-color="#8E76B7"/><stop offset="0.27381" stop-color="#9076B7"/><stop offset="0.279762" stop-color="#9177B6"/><stop offset="0.285714" stop-color="#9377B5"/><stop offset="0.291667" stop-color="#9477B5"/><stop offset="0.297619" stop-color="#9577B4"/><stop offset="0.303571" stop-color="#9777B4"/><stop offset="0.309524" stop-color="#9877B3"/><stop offset="0.315476" stop-color="#9977B3"/><stop offset="0.321429" stop-color="#9B77B2"/><stop offset="0.327381" stop-color="#9C77B1"/><stop offset="0.333333" stop-color="#9D77B1"/><stop offset="0.339286" stop-color="#9F77B0"/><stop offset="0.345238" stop-color="#A078AF"/><stop offset="0.35119" stop-color="#A178AF"/><stop offset="0.357143" stop-color="#A378AE"/><stop offset="0.363095" stop-color="#A478AE"/><stop offset="0.369048" stop-color="#A578AD"/><stop offset="0.375" stop-color="#A678AC"/><stop offset="0.380952" stop-color="#A878AB"/><stop offset="0.386905" stop-color="#A978AB"/><stop offset="0.392857" stop-color="#AA78AA"/><stop offset="0.39881" stop-color="#AB78A9"/><stop offset="0.404762" stop-color="#AD78A9"/><stop offset="0.410714" stop-color="#AE78A8"/><stop offset="0.416667" stop-color="#AF78A7"/><stop offset="0.422619" stop-color="#B079A6"/><stop offset="0.428571" stop-color="#B179A5"/><stop offset="0.434524" stop-color="#B279A5"/><stop offset="0.440476" stop-color="#B479A4"/><stop offset="0.446429" stop-color="#B579A3"/><stop offset="0.452381" stop-color="#B679A2"/><stop offset="0.458333" stop-color="#B779A1"/><stop offset="0.464286" stop-color="#B879A1"/><stop offset="0.470238" stop-color="#B979A0"/><stop offset="0.47619" stop-color="#BA799F"/><stop offset="0.482143" stop-color="#BB799E"/><stop offset="0.488095" stop-color="#BC799D"/><stop offset="0.494048" stop-color="#BD799C"/><stop offset="0.5" stop-color="#BE7A9B"/><stop offset="0.505952" stop-color="#BF7A9B"/><stop offset="0.511905" stop-color="#C07A9A"/><stop offset="0.517857" stop-color="#C17A99"/><stop offset="0.52381" stop-color="#C27A98"/><stop offset="0.529762" stop-color="#C37A97"/><stop offset="0.535714" stop-color="#C47A96"/><stop offset="0.541667" stop-color="#C57A95"/><stop offset="0.547619" stop-color="#C67A94"/><stop offset="0.553571" stop-color="#C77A93"/><stop offset="0.559524" stop-color="#C87A92"/><stop offset="0.565476" stop-color="#C97A91"/><stop offset="0.571429" stop-color="#CA7A90"/><stop offset="0.577381" stop-color="#CB7A8F"/><stop offset="0.583333" stop-color="#CC7A8E"/><stop offset="0.589286" stop-color="#CD7A8D"/><stop offset="0.595238" stop-color="#CD7A8C"/><stop offset="0.60119" stop-color="#CE7B8B"/><stop offset="0.607143" stop-color="#CF7B8A"/><stop offset="0.613095" stop-color="#D07B89"/><stop offset="0.619048" stop-color="#D17B88"/><stop offset="0.625" stop-color="#D27B87"/><stop offset="0.630952" stop-color="#D27B86"/><stop offset="0.636905" stop-color="#D37B84"/><stop offset="0.642857" stop-color="#D47B83"/><stop offset="0.64881" stop-color="#D57B82"/><stop offset="0.654762" stop-color="#D57B81"/><stop offset="0.660714" stop-color="#D67B80"/><stop offset="0.666667" stop-color="#D77B7F"/><stop offset="0.672619" stop-color="#D87B7E"/><stop offset="0.678571" stop-color="#D87B7C"/><stop offset="0.684524" stop-color="#D97B7B"/><stop offset="0.690476" stop-color="#DA7B7A"/><stop offset="0.696429" stop-color="#DA7B79"/><stop offset="0.702381" stop-color="#DB7B78"/><stop offset="0.708333" stop-color="#DC7B76"/><stop offset="0.714286" stop-color="#DC7B75"/><stop offset="0.720238" stop-color="#DD7B74"/><stop offset="0.72619" stop-color="#DE7C73"/><stop offset="0.732143" stop-color="#DE7C72"/><stop offset="0.738095" stop-color="#DF7C70"/><stop offset="0.744048" stop-color="#DF7C6F"/><stop offset="0.75" stop-color="#E07C6E"/><stop offset="0.755952" stop-color="#E07C6D"/><stop offset="0.761905" stop-color="#E17C6B"/><stop offset="0.767857" stop-color="#E27C6A"/><stop offset="0.77381" stop-color="#E27C69"/><stop offset="0.779762" stop-color="#E37C67"/><stop offset="0.785714" stop-color="#E37C66"/><stop offset="0.791667" stop-color="#E47C65"/><stop offset="0.797619" stop-color="#E47C63"/><stop offset="0.803571" stop-color="#E57C62"/><stop offset="0.809524" stop-color="#E57C61"/><stop offset="0.815476" stop-color="#E57C5F"/><stop offset="0.821429" stop-color="#E67C5E"/><stop offset="0.827381" stop-color="#E67C5C"/><stop offset="0.833333" stop-color="#E77C5B"/><stop offset="0.839286" stop-color="#E77C5A"/><stop offset="0.845238" stop-color="#E77C58"/><stop offset="0.85119" stop-color="#E87C57"/><stop offset="0.857143" stop-color="#E87C55"/><stop offset="0.863095" stop-color="#E87C54"/><stop offset="0.869048" stop-color="#E97C53"/><stop offset="0.875" stop-color="#E97C51"/><stop offset="0.880952" stop-color="#E97C50"/><stop offset="0.886905" stop-color="#EA7C4E"/><stop offset="0.892857" stop-color="#EA7C4D"/><stop offset="0.89881" stop-color="#EA7C4B"/><stop offset="0.904762" stop-color="#EA7C4A"/><stop offset="0.910714" stop-color="#EB7C48"/><stop offset="0.916667" stop-color="#EB7C47"/><stop offset="0.922619" stop-color="#EB7C45"/><stop offset="0.928571" stop-color="#EB7C44"/><stop offset="0.934524" stop-color="#EB7C42"/><stop offset="0.940476" stop-color="#EC7C40"/><stop offset="0.946429" stop-color="#EC7C3F"/><stop offset="0.952381" stop-color="#EC7C3D"/><stop offset="0.958333" stop-color="#EC7C3C"/><stop offset="0.964286" stop-color="#EC7C3A"/><stop offset="0.970238" stop-color="#EC7C39"/><stop offset="0.97619" stop-color="#EC7C37"/><stop offset="0.982143" stop-color="#EC7C35"/><stop offset="0.988095" stop-color="#EC7C34"/><stop offset="0.994048" stop-color="#EC7C32"/><stop offset="1" stop-color="#ED7D31"/></linearGradient></defs><g><rect x="0" y="0" width="1280" height="720" fill="url(#fill0)"/><rect x="0" y="0" width="1280" height="720" fill="url(#fill1)"/><path d="M324 227C324 230.314 321.538 233 318.5 233 315.462 233 313 230.314 313 227 313 223.686 315.462 221 318.5 221 321.538 221 324 223.686 324 227Z" fill="#4472C4" fill-rule="evenodd"/><path d="M0 0 332.637 0 333.526 3.45585C336.459 17.7885 338 32.6285 338 47.8281 338 169.426 239.394 268 117.758 268 79.7472 268 43.985 258.374 12.7783 241.426L0 233.666Z" fill="url(#fill2)" fill-rule="evenodd"/><g clip-path="url(#clip3)"><g clip-path="url(#clip4)"><g clip-path="url(#clip5)"><path d="M97.3151 61.2117C90.4226 61.2117 85.0071 55.6321 85.0071 48.9037 85.0071 42.1754 90.5867 36.5957 97.3151 36.5957 104.208 36.5957 109.623 42.1754 109.623 48.9037 109.623 55.6321 104.043 61.2117 97.3151 61.2117ZM125.049 41.1907C124.393 38.8932 123.572 36.7598 122.423 34.7906L125.049 27.0776 119.141 21.1697 111.428 23.7954C109.459 22.6467 107.326 21.8262 105.028 21.1697L101.418 13.949 93.2124 13.949 89.6021 21.1697C87.3046 21.8262 85.1712 22.6467 83.202 23.7954L75.489 21.1697 69.5811 27.0776 72.2068 34.7906C71.0581 36.7598 70.2375 38.8932 69.5811 41.1907L62.3604 44.8011 62.3604 53.0064 69.5811 56.6167C70.2375 58.9142 71.0581 61.0476 72.2068 63.0169L69.5811 70.7299 75.3248 76.4736 83.0378 73.8479C85.0071 74.9966 87.1405 75.8172 89.438 76.4736L93.0483 83.6943 101.254 83.6943 104.864 76.4736C107.161 75.8172 109.295 74.9966 111.264 73.8479L118.977 76.4736 124.885 70.7299 122.259 63.0169C123.408 61.0476 124.393 58.7501 125.049 56.6167L132.27 53.0064 132.27 44.8011 125.049 41.1907Z" transform="matrix(0.787308 0.616559 -0.635245 0.811169 727.56 112.749)"/><path d="M60.2271 120.946C53.3346 120.946 47.9191 115.367 47.9191 108.638 47.9191 101.746 53.4987 96.3305 60.2271 96.3305 67.1195 96.3305 72.535 101.91 72.535 108.638 72.535 115.367 67.1195 120.946 60.2271 120.946L60.2271 120.946ZM85.3353 94.5253 87.961 86.8123 82.0532 80.9045 74.3402 83.5302C72.3709 82.3814 70.0734 81.5609 67.9401 80.9045L64.3297 73.6838 56.1244 73.6838 52.5141 80.9045C50.2166 81.5609 48.0832 82.3814 46.1139 83.5302L38.4009 80.9045 32.6572 86.6482 35.1188 94.3612C33.97 96.3305 33.1495 98.628 32.4931 100.761L25.2724 104.372 25.2724 112.577 32.4931 116.187C33.1495 118.485 33.97 120.618 35.1188 122.587L32.6572 130.3 38.4009 136.044 46.1139 133.583C48.0832 134.731 50.2166 135.552 52.5141 136.208L56.1244 143.429 64.3297 143.429 67.9401 136.208C70.2375 135.552 72.3709 134.731 74.3402 133.583L82.0532 136.208 87.7969 130.3 85.3353 122.752C86.4841 120.782 87.3046 118.649 87.961 116.351L95.1817 112.741 95.1817 104.536 87.961 100.925C87.3046 98.628 86.4841 96.4946 85.3353 94.5253Z" transform="matrix(0.787308 0.616559 -0.635245 0.811169 727.56 112.749)"/></g></g></g><path d="M351 143.5C351 70.8746 409.875 12 482.5 12 555.125 12 614 70.8746 614 143.5 614 216.125 555.125 275 482.5 275 409.875 275 351 216.125 351 143.5Z" fill="url(#fill6)" fill-rule="evenodd"/><path d="M391.778 312.778 385.222 312.778 385.222 306.222C385.222 305.547 384.675 305 384 305 383.325 305 382.778 305.547 382.778 306.222L382.778 312.778 376.222 312.778C375.547 312.778 375 313.325 375 314 375 314.675 375.547 315.222 376.222 315.222L382.778 315.222 382.778 321.778C382.778 322.453 383.325 323 384 323 384.675 323 385.222 322.453 385.222 321.778L385.222 315.222 391.778 315.222C392.453 315.222 393 314.675 393 314 393 313.325 392.453 312.778 391.778 312.778Z" fill="#4472C4" fill-rule="evenodd"/><path d="M441 412C441 344.069 496.069 289 564 289 631.931 289 687 344.069 687 412 687 479.931 631.931 535 564 535 496.069 535 441 479.931 441 412Z" fill="url(#fill7)" fill-rule="evenodd"/><path d="M124.765 289C317.09 289 473 445.133 473 637.732 473 661.807 470.564 685.312 465.925 708.014L462.848 720 0 720 0 312.255 5.03048 310.161C42.3657 296.471 82.6942 289 124.765 289Z" fill="url(#fill8)" fill-rule="evenodd"/><path d="M523.5 584.512C526.807 584.512 529.488 587.193 529.488 590.5 529.488 593.807 526.807 596.488 523.5 596.488 520.193 596.488 517.512 593.807 517.512 590.5 517.516 587.194 520.194 584.516 523.5 584.512M523.5 582C518.806 582 515 585.806 515 590.5 515 595.194 518.806 599 523.5 599 528.194 599 532 595.194 532 590.5 532 585.806 528.194 582 523.5 582Z" fill="#4472C4" fill-rule="evenodd"/><g><g><g><path d="M49.4375 617.25 321.562 617.25 321.562 630.208 49.4375 630.208Z"/><path d="M81.6033 533.685C78.3738 533.432 75.4711 531.618 73.8283 528.826L53.001 493.397C52.3274 492.206 52.7473 490.694 53.9388 490.021 54.1597 489.896 54.3985 489.805 54.6468 489.753L62.2986 488.133C64.557 487.658 66.9079 488.256 68.6644 489.753L96.7516 513.81 150.108 502.614 95.7635 457.38C94.7123 456.501 94.573 454.936 95.4522 453.884 95.8089 453.458 96.2984 453.163 96.8423 453.048L108.077 450.693C110.126 450.26 112.259 450.486 114.171 451.341L203.46 491.441 278.644 475.68C288.344 473.643 315.142 480.679 316.667 487.955 319.214 500.081 294.962 505.17 294.962 505.17L169.396 531.521C148.716 535.861 127.523 537.238 106.454 535.612Z"/></g></g></g><path d="M1216.5 379.5 1216.5 719.524" stroke="url(#stroke9)" stroke-width="2.66667" stroke-linecap="square" stroke-linejoin="bevel" stroke-miterlimit="10" fill="none" fill-rule="evenodd"/><g><g><g><path d="M74.1667 57.5 69.8333 57.5C67.45 57.5 65.5 55.55 65.5 53.1667L65.5 44.5C65.5 42.1167 67.45 40.1667 69.8333 40.1667L74.1667 40.1667C76.55 40.1667 78.5 42.1167 78.5 44.5L78.5 53.1667C78.5 55.55 76.55 57.5 74.1667 57.5Z"/><path d="M106.667 79.1667 80.6667 79.1667 80.6667 74.8333 106.667 74.8333 106.667 79.1667ZM106.667 92.1667 80.6667 92.1667 80.6667 87.8333 106.667 87.8333 106.667 92.1667ZM106.667 105.167 80.6667 105.167 80.6667 100.833 106.667 100.833 106.667 105.167ZM72 105.167 37.3333 105.167 37.3333 96.5C37.3333 95.2 37.9833 93.9 39.0667 93.0333 41.45 91.3 44.4833 89.7833 47.5167 88.9167 49.9 88.2667 52.2833 87.8333 54.6667 87.8333 57.2667 87.8333 59.65 88.2667 61.8167 88.9167 64.85 89.7833 67.8833 91.0833 70.2667 93.0333 71.35 93.9 72 95.2 72 96.5L72 105.167ZM54.6667 68.3333C59.4333 68.3333 63.3333 72.2333 63.3333 77 63.3333 81.7667 59.4333 85.6667 54.6667 85.6667 49.9 85.6667 46 81.7667 46 77 46 72.2333 49.9 68.3333 54.6667 68.3333ZM111 53.1667 82.8333 53.1667C82.8333 57.9333 78.9333 61.8333 74.1667 61.8333L69.8333 61.8333C65.0667 61.8333 61.1667 57.9333 61.1667 53.1667L33 53.1667C30.6167 53.1667 28.6667 55.1167 28.6667 57.5L28.6667 109.5C28.6667 111.883 30.6167 113.833 33 113.833L111 113.833C113.383 113.833 115.333 111.883 115.333 109.5L115.333 57.5C115.333 55.1167 113.383 53.1667 111 53.1667Z"/></g></g></g><g><g><g><path d="M567.2 411.438C567.2 407.244 563.831 403.875 559.638 403.875 555.444 403.875 552.075 407.244 552.075 411.438 552.075 413.569 552.969 415.562 554.481 417.006L554.481 413.362C553.45 410.544 554.894 407.381 557.713 406.281 560.531 405.181 563.694 406.694 564.794 409.513 565.275 410.75 565.275 412.125 564.794 413.362L564.794 416.938C566.306 415.562 567.2 413.5 567.2 411.438Z"/><path d="M559.638 399.75C553.175 399.75 547.95 404.975 547.95 411.438 547.95 415.906 550.494 419.962 554.481 421.956L554.481 419.619C550.013 416.8 548.638 410.819 551.525 406.35 554.412 401.881 560.256 400.438 564.794 403.325 569.331 406.212 570.638 412.125 567.75 416.594 566.994 417.763 565.963 418.794 564.794 419.55L564.794 421.888C570.569 419.069 572.975 412.056 570.156 406.281 568.162 402.294 564.037 399.75 559.638 399.75Z"/><path d="M556.544 411.438 556.544 441.481 556.544 441.481 553.931 430C553.519 428.35 551.869 427.319 550.219 427.663 548.569 428.075 547.537 429.656 547.881 431.306L551.594 448.081C551.731 448.769 552.144 449.456 552.763 449.869L559.638 455.163 559.638 459.837 577.65 459.837 577.65 456.812C577.65 452.413 582.6 452.069 582.6 443.75L582.6 432.544C582.6 430.481 580.95 428.831 578.888 428.831 577.925 428.831 577.031 429.175 576.344 429.794 576.344 429.656 576.344 429.587 576.344 429.45 576.344 427.388 574.694 425.737 572.631 425.737 571.669 425.737 570.706 426.081 570.019 426.769 569.537 424.775 567.544 423.469 565.55 423.95 563.831 424.362 562.662 425.806 562.662 427.525L562.594 427.525 562.594 411.438C562.594 409.719 561.219 408.344 559.5 408.344 557.919 408.344 556.544 409.719 556.544 411.438Z"/></g></g></g><g><g><g><path d="M137.5 166.667 62.5 166.667 62.5 33.3333 137.5 33.3333 137.5 166.667ZM91.6667 16.6667 108.333 16.6667C110.625 16.6667 112.5 18.5417 112.5 20.8333 112.5 23.125 110.625 25 108.333 25L91.6667 25C89.375 25 87.5 23.125 87.5 20.8333 87.5 18.5417 89.375 16.6667 91.6667 16.6667ZM145.833 8.33333 54.1667 8.33333C51.875 8.33333 50 10.2083 50 12.5L50 187.5C50 189.792 51.875 191.667 54.1667 191.667L145.833 191.667C148.125 191.667 150 189.792 150 187.5L150 12.5C150 10.2083 148.125 8.33333 145.833 8.33333Z" transform="matrix(1 0 0 1.04 463 304)"/></g></g></g><g><g><g><path d="M11.0208 39.2917 11.0208 6.70833 23 6.70833 23 16.7708 34.9792 16.7708 34.9792 39.2917 11.0208 39.2917ZM25.875 7.90625 31.8646 13.8958 25.875 13.8958 25.875 7.90625ZM25.875 3.83333 8.14583 3.83333 8.14583 42.1667 37.8542 42.1667 37.8542 14.375 25.875 3.83333Z" transform="matrix(1 0 0 1.45652 537 346)"/><path d="M13.8958 21.5625 32.1042 21.5625 32.1042 23.4792 13.8958 23.4792Z" transform="matrix(1 0 0 1.45652 537 346)"/><path d="M13.8958 17.7292 20.125 17.7292 20.125 19.6458 13.8958 19.6458Z" transform="matrix(1 0 0 1.45652 537 346)"/><path d="M13.8958 25.3958 32.1042 25.3958 32.1042 27.3125 13.8958 27.3125Z" transform="matrix(1 0 0 1.45652 537 346)"/><path d="M13.8958 29.2292 32.1042 29.2292 32.1042 31.1458 13.8958 31.1458Z" transform="matrix(1 0 0 1.45652 537 346)"/><path d="M13.8958 33.0625 32.1042 33.0625 32.1042 34.9792 13.8958 34.9792Z" transform="matrix(1 0 0 1.45652 537 346)"/></g></g></g><g><g><g><path d="M211.167 57.5 206.833 57.5C204.45 57.5 202.5 55.55 202.5 53.1667L202.5 44.5C202.5 42.1167 204.45 40.1667 206.833 40.1667L211.167 40.1667C213.55 40.1667 215.5 42.1167 215.5 44.5L215.5 53.1667C215.5 55.55 213.55 57.5 211.167 57.5Z"/><path d="M243.667 79.1667 217.667 79.1667 217.667 74.8333 243.667 74.8333 243.667 79.1667ZM243.667 92.1667 217.667 92.1667 217.667 87.8333 243.667 87.8333 243.667 92.1667ZM243.667 105.167 217.667 105.167 217.667 100.833 243.667 100.833 243.667 105.167ZM209 105.167 174.333 105.167 174.333 96.5C174.333 95.2 174.983 93.9 176.067 93.0333 178.45 91.3 181.483 89.7833 184.517 88.9167 186.9 88.2667 189.283 87.8333 191.667 87.8333 194.267 87.8333 196.65 88.2667 198.817 88.9167 201.85 89.7833 204.883 91.0833 207.267 93.0333 208.35 93.9 209 95.2 209 96.5L209 105.167ZM191.667 68.3333C196.433 68.3333 200.333 72.2333 200.333 77 200.333 81.7667 196.433 85.6667 191.667 85.6667 186.9 85.6667 183 81.7667 183 77 183 72.2333 186.9 68.3333 191.667 68.3333ZM248 53.1667 219.833 53.1667C219.833 57.9333 215.933 61.8333 211.167 61.8333L206.833 61.8333C202.067 61.8333 198.167 57.9333 198.167 53.1667L170 53.1667C167.617 53.1667 165.667 55.1167 165.667 57.5L165.667 109.5C165.667 111.883 167.617 113.833 170 113.833L248 113.833C250.383 113.833 252.333 111.883 252.333 109.5L252.333 57.5C252.333 55.1167 250.383 53.1667 248 53.1667Z"/></g></g></g><g><g><g><path d="M142.167 149.5 137.833 149.5C135.45 149.5 133.5 147.55 133.5 145.167L133.5 136.5C133.5 134.117 135.45 132.167 137.833 132.167L142.167 132.167C144.55 132.167 146.5 134.117 146.5 136.5L146.5 145.167C146.5 147.55 144.55 149.5 142.167 149.5Z"/><path d="M174.667 171.167 148.667 171.167 148.667 166.833 174.667 166.833 174.667 171.167ZM174.667 184.167 148.667 184.167 148.667 179.833 174.667 179.833 174.667 184.167ZM174.667 197.167 148.667 197.167 148.667 192.833 174.667 192.833 174.667 197.167ZM140 197.167 105.333 197.167 105.333 188.5C105.333 187.2 105.983 185.9 107.067 185.033 109.45 183.3 112.483 181.783 115.517 180.917 117.9 180.267 120.283 179.833 122.667 179.833 125.267 179.833 127.65 180.267 129.817 180.917 132.85 181.783 135.883 183.083 138.267 185.033 139.35 185.9 140 187.2 140 188.5L140 197.167ZM122.667 160.333C127.433 160.333 131.333 164.233 131.333 169 131.333 173.767 127.433 177.667 122.667 177.667 117.9 177.667 114 173.767 114 169 114 164.233 117.9 160.333 122.667 160.333ZM179 145.167 150.833 145.167C150.833 149.933 146.933 153.833 142.167 153.833L137.833 153.833C133.067 153.833 129.167 149.933 129.167 145.167L101 145.167C98.6167 145.167 96.6667 147.117 96.6667 149.5L96.6667 201.5C96.6667 203.883 98.6167 205.833 101 205.833L179 205.833C181.383 205.833 183.333 203.883 183.333 201.5L183.333 149.5C183.333 147.117 181.383 145.167 179 145.167Z"/></g></g></g><g><g><g><path d="M494 45C493.993 38.9278 489.072 34.0072 483 34L471 34C464.928 34.0072 460.007 38.9278 460 45L460 72 494 72ZM492 70 462 70 462 45C462.006 40.0319 466.032 36.0061 471 36L483 36C487.968 36.0061 491.994 40.0319 492 45Z"/><path d="M504 59.518 499 59.518C497.343 59.518 496 60.8611 496 62.518L496 62.518C496 64.1749 497.343 65.518 499 65.518L499 75.562C498.995 77.0599 498.143 78.426 496.8 79.089 496.258 77.2599 494.58 76.0037 492.672 76L461.328 76C459.42 76.0035 457.741 77.2603 457.2 79.09 455.857 78.4267 455.004 77.0602 455 75.562L455 65.518 455 65.518C456.657 65.518 458 64.1749 458 62.518L458 62.518C458 60.8611 456.657 59.518 455 59.518L450 59.518C448.343 59.518 447 60.8611 447 62.518L447 62.518C447 64.1749 448.343 65.518 450 65.518L453 65.518 453 75.562C453.005 78.1162 454.637 80.3833 457.057 81.2 457.336 83.3475 459.163 84.9559 461.328 84.96L476 84.96 476 97.519 467.364 97.519C464.056 97.5233 461.202 99.8386 460.515 103.074 458.328 103.468 456.874 105.561 457.268 107.748 457.663 109.935 459.755 111.389 461.942 110.994 464.13 110.6 465.583 108.508 465.189 106.321 464.931 104.891 463.923 103.712 462.552 103.234 463.131 101.05 465.104 99.526 467.364 99.519L476 99.519 476 103.141C473.861 103.693 472.575 105.875 473.127 108.014 473.679 110.153 475.861 111.439 478 110.887 480.139 110.335 481.425 108.153 480.873 106.014 480.509 104.605 479.409 103.505 478 103.141L478 99.519 487.253 99.519C489.5 99.5273 491.464 101.035 492.053 103.203 489.966 103.88 488.824 106.12 489.501 108.207 490.178 110.294 492.418 111.436 494.505 110.759 496.591 110.082 497.734 107.842 497.057 105.755 496.619 104.405 495.493 103.391 494.105 103.096 493.427 99.85 490.567 97.5231 487.251 97.519L478 97.519 478 84.963 492.672 84.963C494.837 84.9589 496.664 83.3505 496.943 81.203 499.364 80.3854 500.995 78.1171 501 75.562L501 65.518 504 65.518C505.657 65.518 507 64.1749 507 62.518L507 62.518C507 60.8611 505.657 59.518 504 59.518ZM449 62.518C449 61.9657 449.448 61.518 450 61.518L455 61.518C455.552 61.518 456 61.9657 456 62.518 456 63.0703 455.552 63.518 455 63.518L450 63.518C449.448 63.518 449 63.0703 449 62.518ZM463.253 107C463.253 108.105 462.358 109 461.253 109 460.148 109 459.253 108.105 459.253 107 459.253 105.895 460.148 105 461.253 105 462.358 105 463.253 105.895 463.253 107ZM479 107C479 108.105 478.105 109 477 109 475.895 109 475 108.105 475 107 475 105.895 475.895 105 477 105 478.105 105 479 105.895 479 107ZM495.253 107C495.253 108.105 494.358 109 493.253 109 492.148 109 491.253 108.105 491.253 107 491.253 105.895 492.148 105 493.253 105 494.358 105 495.253 105.895 495.253 107ZM495 80.635C494.999 81.9203 493.957 82.9619 492.672 82.963L461.328 82.963C460.043 82.9619 459.001 81.9203 459 80.635L459 80.328C459.002 79.043 460.043 78.0017 461.328 78L492.672 78C493.957 78.0017 494.998 79.043 495 80.328ZM504 63.518 499 63.518C498.448 63.518 498 63.0703 498 62.518 498 61.9657 498.448 61.518 499 61.518L504 61.518C504.552 61.518 505 61.9657 505 62.518 505 63.0703 504.552 63.518 504 63.518Z"/></g></g></g><g><g><g><path d="M37.5 16.875C37.5 22.3978 33.0228 26.875 27.5 26.875 21.9772 26.875 17.5 22.3978 17.5 16.875 17.5 11.3522 21.9772 6.875 27.5 6.875 33.0228 6.875 37.5 11.3522 37.5 16.875Z" transform="matrix(1 0 0 1.13333 527 136)"/><path d="M31.25 44.375C31.2604 38.5709 35.4618 33.6233 41.1875 32.6725 39.4374 31.8344 37.6182 31.1494 35.75 30.625 33.0761 29.8065 30.2964 29.3853 27.5 29.375 24.7067 29.4232 21.9322 29.8436 19.25 30.625 15.7546 31.6451 12.4577 33.2512 9.5 35.375 8.26688 36.3407 7.53263 37.8091 7.5 39.375L7.5 49.375 32.3688 49.375C31.6339 47.8105 31.2519 46.1035 31.25 44.375Z" transform="matrix(1 0 0 1.13333 527 136)"/><path d="M43.125 35C37.9473 35 33.75 39.1973 33.75 44.375 33.75 49.5527 37.9473 53.75 43.125 53.75 48.3027 53.75 52.5 49.5527 52.5 44.375 52.5 39.1973 48.3027 35 43.125 35ZM47.5 45 44.0625 45 44.0625 48.4375 42.1875 48.4375 42.1875 45 38.75 45 38.75 43.125 42.1875 43.125 42.1875 39.6875 44.0625 39.6875 44.0625 43.125 47.5 43.125Z" transform="matrix(1 0 0 1.13333 527 136)"/></g></g></g><g><g><g><path d="M37.5 16.875C37.5 22.3978 33.0228 26.875 27.5 26.875 21.9772 26.875 17.5 22.3978 17.5 16.875 17.5 11.3522 21.9772 6.875 27.5 6.875 33.0228 6.875 37.5 11.3522 37.5 16.875Z" transform="matrix(1 0 0 1.13333 522 62)"/><path d="M31.25 44.375C31.2604 38.5709 35.4618 33.6233 41.1875 32.6725 39.4374 31.8344 37.6182 31.1494 35.75 30.625 33.0761 29.8065 30.2964 29.3853 27.5 29.375 24.7067 29.4232 21.9322 29.8436 19.25 30.625 15.7546 31.6451 12.4577 33.2512 9.5 35.375 8.26688 36.3407 7.53263 37.8091 7.5 39.375L7.5 49.375 32.3694 49.375C31.634 47.8106 31.2519 46.1036 31.25 44.375Z" transform="matrix(1 0 0 1.13333 522 62)"/><path d="M43.125 35C37.9473 35 33.75 39.1973 33.75 44.375 33.75 49.5527 37.9473 53.75 43.125 53.75 48.3027 53.75 52.5 49.5527 52.5 44.375 52.5 39.1973 48.3027 35 43.125 35ZM47.5 45 38.75 45 38.75 43.125 47.5 43.125Z" transform="matrix(1 0 0 1.13333 522 62)"/></g></g></g><g><g><g><path d="M21.9375 43.875 19.5 43.875 19.5 47.5312 15.8438 47.5312 15.8438 49.9688 19.5 49.9688 19.5 53.625 21.9375 53.625 21.9375 49.9688 25.5938 49.9688 25.5938 47.5312 21.9375 47.5312 21.9375 43.875Z" transform="matrix(1 0 0 1.04274 409 118)"/><path d="M86.5312 98.6804C86.5312 98.6804 92.0156 94.5366 92.0156 91.1241 92.0156 88.9339 88.6143 86.5008 86.5416 90.4947 86.5361 90.5052 86.5264 90.5052 86.5209 90.4947 84.4482 86.5008 81.0469 88.9339 81.0469 91.1241 81.0469 94.5366 86.5312 98.6804 86.5312 98.6804Z" transform="matrix(1 0 0 1.04274 409 118)"/><path d="M63.9844 22.8742C63.9844 20.684 60.5831 18.2509 58.5104 22.2449 58.5049 22.2554 58.4951 22.2554 58.4896 22.2449 56.4169 18.2509 53.0156 20.684 53.0156 22.8742 53.0156 26.2867 58.5 30.4305 58.5 30.4305 58.5 30.4305 63.9844 26.2866 63.9844 22.8742Z" transform="matrix(1 0 0 1.04274 409 118)"/><path d="M96.2812 59.7188C102.368 59.7481 107.327 54.8373 107.356 48.75 107.386 42.6628 102.475 37.7043 96.3875 37.675 90.3004 37.6456 85.3419 42.5566 85.3125 48.6437 85.3077 49.6363 85.4371 50.6248 85.6969 51.5827L72.8575 56.7182C70.4462 51.5278 65.4244 48.0401 59.7188 47.593L59.7188 35.2718C65.7391 34.5987 70.074 29.1726 69.4009 23.1522 68.7277 17.1318 63.3016 12.7971 57.2812 13.4702 51.2609 14.1432 46.926 19.5693 47.5991 25.5897 48.1685 30.6826 52.1885 34.7024 57.2812 35.2718L57.2812 47.5934C51.5759 48.0406 46.5544 51.5281 44.1431 56.7182L31.3031 51.5827C32.8527 45.7418 29.3738 39.7506 23.533 38.201 17.692 36.6515 11.7008 40.1303 10.1512 45.9713 8.6016 51.8121 12.0804 57.8034 17.9214 59.3529 22.8601 60.6632 28.0482 58.3808 30.4194 53.8547L43.2843 59.0004C41.749 64.2627 43.0709 69.9448 46.7714 73.9891L36.9586 83.8025C32.0712 80.2111 25.1978 81.2616 21.6062 86.149 18.0148 91.0365 19.0655 97.9099 23.9528 101.501 28.8403 105.093 35.7138 104.042 39.3052 99.1548 42.3436 95.02 42.1137 89.3322 38.7515 85.4561L48.5325 75.6746C54.3374 80.4001 62.6626 80.4001 68.4675 75.6746L78.2485 85.4561C74.2523 90.0579 74.7435 97.028 79.3454 101.024 83.9473 105.02 90.9173 104.529 94.9133 99.9273 98.9095 95.3254 98.4184 88.3553 93.8166 84.3592 89.9199 80.9755 84.1984 80.7443 80.0414 83.8025L70.2286 73.9891C73.9291 69.9448 75.251 64.2627 73.7157 59.0004L86.5806 53.8547C88.4763 57.4574 92.2104 59.7146 96.2812 59.7188ZM20.7188 57.2812C16.0071 57.2812 12.1875 53.4617 12.1875 48.75 12.1875 44.0383 16.0071 40.2188 20.7188 40.2188 25.4304 40.2188 29.25 44.0383 29.25 48.75 29.2445 53.4594 25.4281 57.2758 20.7188 57.2812ZM49.9688 24.375C49.9688 19.6633 53.7883 15.8438 58.5 15.8438 63.2117 15.8438 67.0312 19.6633 67.0312 24.375 67.0312 29.0867 63.2117 32.9062 58.5 32.9062 53.7906 32.9008 49.9742 29.0844 49.9688 24.375ZM30.4688 101.156C25.7571 101.156 21.9375 97.3367 21.9375 92.625 21.9375 87.9133 25.7571 84.0938 30.4688 84.0938 35.1804 84.0938 39 87.9133 39 92.625 38.9945 97.3344 35.1781 101.151 30.4688 101.156ZM51.0939 74.455C51.1341 70.3648 54.4825 67.0815 58.5728 67.1217 62.5796 67.161 65.8286 70.38 65.9051 74.3864 65.9083 74.4382 65.9079 74.4902 65.904 74.542 61.4206 77.5261 55.5843 77.5277 51.0991 74.5463 51.0945 74.5161 51.0927 74.4855 51.0939 74.455ZM55.4067 61.5939C55.4069 59.8855 56.792 58.5009 58.5005 58.5011 60.2089 58.5013 61.5936 59.8865 61.5933 61.5949 61.5931 63.3031 60.2082 64.6877 58.5 64.6877 56.7923 64.6856 55.4085 63.3016 55.4067 61.5939ZM95.0625 92.625C95.0625 97.3367 91.2429 101.156 86.5312 101.156 81.8196 101.156 78 97.3367 78 92.625 78 87.9133 81.8196 84.0938 86.5312 84.0938 91.2406 84.0992 95.057 87.9156 95.0625 92.625ZM68.1588 72.6483C67.5325 69.4667 65.3837 66.7953 62.4101 65.5018 64.5705 63.3423 64.5711 59.8404 62.4116 57.6801 60.2521 55.5198 56.7502 55.5191 54.5899 57.6786 52.4295 59.8381 52.4289 63.34 54.5884 65.5004 54.5889 65.5009 54.5894 65.5014 54.5899 65.5018 51.6163 66.7953 49.4675 69.4667 48.8412 72.6483 43.7063 67.3141 43.8681 58.8272 49.2023 53.6925 54.5365 48.5577 63.0234 48.7194 68.1582 54.0536 72.9427 59.0239 73.1739 66.8139 68.6925 72.0592 68.5203 72.2608 68.3425 72.4571 68.1588 72.6483ZM96.2812 40.2188C100.993 40.2188 104.812 44.0383 104.812 48.75 104.812 53.4617 100.993 57.2812 96.2812 57.2812 91.5696 57.2812 87.75 53.4617 87.75 48.75 87.7555 44.0406 91.5719 40.2242 96.2812 40.2188Z" transform="matrix(1 0 0 1.04274 409 118)"/><path d="M99.2063 53.4564C99.7371 53.464 100.174 53.0399 100.181 52.509 100.181 52.4997 100.181 52.4906 100.181 52.4814 100.176 52.2648 100.097 52.0563 99.956 51.8916 99.952 51.8862 99.9531 51.8785 99.9585 51.8745 99.9603 51.873 99.9626 51.8722 99.965 51.8721L100.059 51.8721C100.2 51.8733 100.34 51.8447 100.469 51.7882 100.816 51.6277 101.037 51.2793 101.034 50.8969 101.03 50.6798 100.95 50.4709 100.808 50.306 100.804 50.3013 100.804 50.2942 100.809 50.29 100.811 50.2879 100.814 50.287 100.817 50.2871 100.998 50.2748 101.166 50.1862 101.278 50.0433 101.639 49.676 101.644 49.0888 101.29 48.7149 101.286 48.7106 101.286 48.7036 101.29 48.6992 101.291 48.698 101.293 48.697 101.295 48.6964 101.648 48.5628 101.883 48.2265 101.887 47.8491 101.895 47.3183 101.471 46.8818 100.94 46.8741 100.931 46.874 100.922 46.874 100.912 46.8741L97.9875 46.8741C97.726 46.8564 97.5177 46.6481 97.5 46.3866 97.8391 45.4494 98.0042 44.4582 97.9875 43.4616L97.9875 43.4466C97.987 43.2191 97.8963 43.0009 97.7353 42.84 97.4399 42.4537 96.8872 42.38 96.5009 42.6754 96.2586 42.8608 96.1294 43.1581 96.1594 43.4616 96.1594 45.7772 93.3562 47.1179 93.3562 47.1179L93.1125 47.1179 93.1125 52.2366C94.2094 52.2366 94.3313 53.4554 96.4031 53.4554Z" transform="matrix(1 0 0 1.04274 409 118)"/><path d="M92.3813 52.2377 92.3813 46.9971C92.4005 46.6797 92.1588 46.407 91.8415 46.3877 91.8183 46.3862 91.795 46.3862 91.7719 46.3877L90.675 46.3877 90.675 52.8471 91.7719 52.8471C92.0892 52.8662 92.3621 52.6244 92.3813 52.307 92.3826 52.284 92.3826 52.2609 92.3813 52.2377Z" transform="matrix(1 0 0 1.04274 409 118)"/><path d="M36.075 91.7252C36.0827 91.1944 35.6586 90.7579 35.1278 90.7502 35.1185 90.7501 35.1093 90.7501 35.1 90.7502L32.175 90.7502C31.9135 90.7325 31.7052 90.5242 31.6875 90.2627 32.0266 89.3255 32.1917 88.3343 32.175 87.3377L32.175 87.3227C32.1745 87.095 32.0838 86.877 31.9228 86.7161 31.6274 86.3298 31.0747 86.2561 30.6884 86.5515 30.4461 86.7367 30.3169 87.0342 30.3469 87.3377 30.3469 89.6533 27.5438 90.9939 27.5438 90.9939L27.3 90.9939 27.3 96.1127C28.3969 96.1127 28.5187 97.3315 30.5906 97.3315L33.3937 97.3315C33.9246 97.339 34.3612 96.9149 34.3688 96.384 34.3689 96.3747 34.3689 96.3656 34.3688 96.3564 34.364 96.1398 34.2844 95.9313 34.1436 95.7666 34.1396 95.7612 34.1406 95.7535 34.1461 95.7495 34.1479 95.748 34.1502 95.7472 34.1525 95.7471L34.2469 95.7471C34.7779 95.7546 35.2143 95.3303 35.2219 94.7994 35.222 94.7902 35.222 94.7811 35.2219 94.7721 35.2171 94.5546 35.1369 94.3456 34.9952 94.1807 34.991 94.1762 34.9914 94.1692 34.9959 94.165 34.9981 94.1631 35.001 94.162 35.0041 94.1622 35.1856 94.1501 35.3533 94.0615 35.4656 93.9185 35.8265 93.5511 35.8319 92.9639 35.4778 92.59 35.4734 92.5856 35.4733 92.5786 35.4777 92.5742 35.4789 92.573 35.4805 92.572 35.4822 92.5714 35.8349 92.4379 36.0701 92.1023 36.075 91.7252Z" transform="matrix(1 0 0 1.04274 409 118)"/><path d="M25.9594 90.2628 24.8625 90.2628 24.8625 96.7222 25.9594 96.7222C26.2767 96.7413 26.5496 96.4995 26.5687 96.1822 26.5701 96.1591 26.5701 96.136 26.5687 96.1128L26.5687 90.8722C26.588 90.5548 26.3463 90.2821 26.029 90.2628 26.0058 90.2614 25.9825 90.2614 25.9594 90.2628Z" transform="matrix(1 0 0 1.04274 409 118)"/></g></g></g><g><g><g><path d="M210.125 164 35.875 164 35.875 51.25 210.125 51.25 210.125 164ZM215.25 35.875 30.75 35.875C25.1125 35.875 20.5 40.4875 20.5 46.125L20.5 169.125C20.5 174.762 25.1125 179.375 30.75 179.375L102.5 179.375 102.5 194.75 76.875 194.75 76.875 210.125 169.125 210.125 169.125 194.75 143.5 194.75 143.5 179.375 215.25 179.375C220.887 179.375 225.5 174.762 225.5 169.125L225.5 46.125C225.5 40.4875 220.887 35.875 215.25 35.875Z" transform="matrix(1.18699 0 0 1 913 29)"/></g></g></g><g><g><g><path d="M1053.95 124.824 1056.99 122.219 1058.29 123.738 1055.25 126.342Z"/><path d="M1053.95 148.174 1055.25 146.656 1058.29 149.26 1056.99 150.778Z"/><path d="M1060.02 153.382 1061.33 151.864 1064.36 154.468 1063.06 155.987Z"/><path d="M1057.01 135.499 1061.01 135.499 1061.01 137.499 1057.01 137.499Z"/><path d="M1073.01 135.499 1077.01 135.499 1077.01 137.499 1073.01 137.499Z"/><path d="M1065.01 135.499 1069.01 135.499 1069.01 137.499 1065.01 137.499Z"/><path d="M1060.02 119.616 1063.06 117.012 1064.36 118.53 1061.33 121.134Z"/><path d="M1049.01 131.693 1052.22 128.946 1050.92 127.428 1049.01 129.058 1049.01 113.998 1045.01 113.998 1045.01 108.993 1021.01 108.993 1021.01 113.998 1017.01 113.998 1017.01 160.974 1015.01 160.974 1015.01 162.974 1051.01 162.974 1051.01 160.974 1049.01 160.974 1049.01 143.94 1050.92 145.57 1052.22 144.051 1049.01 141.304 1049.01 137.499 1053.01 137.499 1053.01 135.499 1049.01 135.499ZM1023.01 110.993 1043.01 110.993 1043.01 113.998 1023.01 113.998ZM1035.01 160.974 1035.01 151.997 1031.01 151.997 1031.01 160.974 1019.01 160.974 1019.01 115.998 1047.01 115.998 1047.01 160.974Z"/><path d="M1039.01 143.997 1043.01 143.997 1043.01 147.997 1039.01 147.997Z"/><path d="M1023.01 143.997 1027.01 143.997 1027.01 147.997 1023.01 147.997Z"/><path d="M1031.01 143.997 1035.01 143.997 1035.01 147.997 1031.01 147.997Z"/><path d="M1023.01 135.997 1027.01 135.997 1027.01 139.997 1023.01 139.997Z"/><path d="M1031.01 127.997 1035.01 127.997 1035.01 131.997 1031.01 131.997Z"/><path d="M1031.01 135.997 1035.01 135.997 1035.01 139.997 1031.01 139.997Z"/><path d="M1023.01 127.997 1027.01 127.997 1027.01 131.997 1023.01 131.997Z"/><path d="M1039.01 119.998 1043.01 119.998 1043.01 123.997 1039.01 123.997Z"/><path d="M1023.01 151.997 1027.01 151.997 1027.01 155.998 1023.01 155.998Z"/><path d="M1039.01 151.997 1043.01 151.997 1043.01 155.998 1039.01 155.998Z"/><path d="M1023.01 119.998 1027.01 119.998 1027.01 123.997 1023.01 123.997Z"/><path d="M1039.01 127.997 1043.01 127.997 1043.01 131.997 1039.01 131.997Z"/><path d="M1031.01 119.998 1035.01 119.998 1035.01 123.997 1031.01 123.997Z"/><path d="M1039.01 135.997 1043.01 135.997 1043.01 139.997 1039.01 139.997Z"/><path d="M1091.51 124.999C1085.16 124.999 1080.01 130.148 1080.01 136.499 1080.01 142.85 1085.16 147.999 1091.51 147.999 1097.86 147.999 1103.01 142.85 1103.01 136.499 1103 130.151 1097.86 125.006 1091.51 124.999ZM1086.08 144.282C1086.39 141.282 1089.07 139.101 1092.07 139.411 1094.64 139.676 1096.68 141.709 1096.94 144.281 1093.68 146.571 1089.34 146.572 1086.08 144.282ZM1089.06 134.93C1089.06 133.575 1090.16 132.477 1091.51 132.477 1092.87 132.476 1093.96 133.574 1093.96 134.929 1093.96 136.283 1092.87 137.382 1091.51 137.382 1091.51 137.382 1091.51 137.382 1091.51 137.382 1090.16 137.381 1089.06 136.284 1089.06 134.93ZM1098.66 142.732C1098.05 140.68 1096.59 138.988 1094.65 138.084 1096.39 136.35 1096.4 133.531 1094.67 131.787 1092.94 130.043 1090.12 130.034 1088.37 131.767 1086.63 133.501 1086.62 136.32 1088.35 138.064 1088.36 138.07 1088.37 138.077 1088.37 138.084 1086.43 138.988 1084.97 140.68 1084.36 142.733 1080.91 138.783 1081.31 132.781 1085.26 129.328 1089.21 125.874 1095.21 126.276 1098.66 130.226 1101.79 133.806 1101.79 139.151 1098.66 142.732Z"/><path d="M1075.51 120.999C1081.86 120.999 1087.01 115.85 1087.01 109.499 1087.01 103.148 1081.86 97.999 1075.51 97.999 1069.16 97.999 1064.01 103.148 1064.01 109.499 1064.02 115.847 1069.16 120.992 1075.51 120.999ZM1070.08 117.282C1070.39 114.282 1073.07 112.101 1076.07 112.411 1078.64 112.676 1080.68 114.709 1080.94 117.281 1077.68 119.571 1073.34 119.572 1070.08 117.282ZM1073.06 107.93C1073.06 106.575 1074.16 105.477 1075.51 105.477 1076.87 105.476 1077.96 106.574 1077.96 107.929 1077.96 109.283 1076.87 110.382 1075.51 110.382 1075.51 110.382 1075.51 110.382 1075.51 110.382 1074.16 110.381 1073.06 109.284 1073.06 107.93ZM1075.51 99.9993C1080.75 99.9913 1085 104.232 1085.01 109.47 1085.01 111.773 1084.18 113.999 1082.66 115.732 1082.05 113.68 1080.59 111.988 1078.65 111.084 1080.39 109.35 1080.4 106.531 1078.67 104.787 1076.94 103.043 1074.12 103.034 1072.37 104.767 1070.63 106.501 1070.62 109.32 1072.35 111.064 1072.36 111.07 1072.37 111.077 1072.37 111.084 1070.43 111.988 1068.97 113.68 1068.36 115.733 1064.91 111.791 1065.31 105.799 1069.25 102.348 1070.98 100.83 1073.21 99.9954 1075.51 99.999Z"/><path d="M1075.51 151.999C1069.16 151.999 1064.01 157.148 1064.01 163.499 1064.01 169.85 1069.16 174.999 1075.51 174.999 1081.86 174.999 1087.01 169.85 1087.01 163.499 1087 157.151 1081.86 152.006 1075.51 151.999ZM1070.08 171.282C1070.39 168.282 1073.07 166.101 1076.07 166.411 1078.64 166.676 1080.68 168.709 1080.94 171.281 1077.68 173.571 1073.34 173.572 1070.08 171.282ZM1073.06 161.93C1073.06 160.575 1074.16 159.477 1075.51 159.477 1076.87 159.476 1077.96 160.574 1077.96 161.929 1077.96 163.283 1076.87 164.382 1075.51 164.382 1075.51 164.382 1075.51 164.382 1075.51 164.382 1074.16 164.381 1073.06 163.284 1073.06 161.93ZM1082.66 169.732C1082.05 167.68 1080.59 165.988 1078.65 165.084 1080.39 163.35 1080.4 160.531 1078.67 158.787 1076.94 157.043 1074.12 157.034 1072.37 158.767 1070.63 160.501 1070.62 163.32 1072.35 165.064 1072.36 165.07 1072.37 165.077 1072.37 165.084 1070.43 165.988 1068.97 167.68 1068.36 169.733 1064.91 165.783 1065.31 159.781 1069.26 156.328 1073.21 152.874 1079.21 153.276 1082.66 157.226 1085.79 160.806 1085.79 166.151 1082.66 169.732Z"/></g></g></g></g></svg>